<svg width="302" height="62" viewBox="0 0 302 62" fill="none" xmlns="http://www.w3.org/2000/svg">
<path d="M17.36 5.12C23.44 5.12 28.6933 6.26667 33.12 8.56C37.6 10.8 41.0133 14.0267 43.36 18.24C45.76 22.4533 46.96 27.4133 46.96 33.12C46.96 38.8267 45.76 43.7867 43.36 48C41.0133 52.16 37.6 55.36 33.12 57.6C28.6933 59.7867 23.44 60.88 17.36 60.88H2C0.895432 60.88 0 59.9846 0 58.88V7.12C0 6.01543 0.895431 5.12 2 5.12H17.36ZM17.36 54.88C24.56 54.88 30.0533 52.9867 33.84 49.2C37.6267 45.36 39.52 40 39.52 33.12C39.52 26.1867 37.6 20.7733 33.76 16.88C29.9733 12.9867 24.5067 11.04 17.36 11.04H9.28C8.17543 11.04 7.28 11.9354 7.28 13.04V52.88C7.28 53.9846 8.17543 54.88 9.28 54.88H17.36Z" fill="white"/>
<path d="M96.5625 37.28C96.5625 38.1183 96.5333 38.9859 96.4748 39.8827C96.4081 40.9054 95.5436 41.68 94.5187 41.68H78.9642H63.4098C62.2567 41.68 61.33 42.6563 61.521 43.7934C62.08 47.1197 63.4672 49.8019 65.6825 51.84C68.4025 54.24 71.6825 55.44 75.5225 55.44C78.6692 55.44 81.2825 54.72 83.3625 53.28C85.1005 52.0634 86.4137 50.5282 87.3022 48.6745C87.6701 47.9068 88.4131 47.36 89.2644 47.36H93.0494C94.3726 47.36 95.3333 48.6267 94.8167 49.8449C93.5016 52.9463 91.4435 55.558 88.6425 57.68C85.1225 60.2933 80.7492 61.6 75.5225 61.6C71.3625 61.6 67.6292 60.6667 64.3225 58.8C61.0692 56.9333 58.5092 54.2933 56.6425 50.88C54.7758 47.4133 53.8425 43.4133 53.8425 38.88C53.8425 34.3467 54.7492 30.3733 56.5625 26.96C58.3758 23.5467 60.9092 20.9333 64.1625 19.12C67.4692 17.2533 71.2558 16.32 75.5225 16.32C79.6825 16.32 83.3625 17.2267 86.5625 19.04C89.7625 20.8533 92.2158 23.36 93.9225 26.56C95.6825 29.7067 96.5625 33.28 96.5625 37.28ZM87.0425 35.76C88.1471 35.76 89.0586 34.8612 88.9286 33.7644C88.6994 31.8305 88.124 30.1224 87.2025 28.64C85.9758 26.6133 84.2958 25.0933 82.1625 24.08C80.0825 23.0133 77.7625 22.48 75.2025 22.48C71.5225 22.48 68.3758 23.6533 65.7625 26C63.6648 27.9229 62.3012 30.4546 61.6717 33.5951C61.4407 34.7474 62.3749 35.76 63.55 35.76H87.0425Z" fill="white"/>
<path d="M103.452 38.88C103.452 34.3467 104.359 30.4 106.172 27.04C107.985 23.6267 110.492 20.9867 113.692 19.12C116.945 17.2533 120.652 16.32 124.812 16.32C130.199 16.32 134.625 17.6267 138.092 20.24C140.971 22.3779 143.048 25.194 144.321 28.6882C144.765 29.9044 143.806 31.12 142.512 31.12H138.729C137.832 31.12 137.061 30.5152 136.719 29.6863C135.893 27.687 134.591 26.0582 132.812 24.8C130.679 23.2533 128.012 22.48 124.812 22.48C120.652 22.48 117.292 23.92 114.732 26.8C112.172 29.6267 110.892 33.6533 110.892 38.88C110.892 44.16 112.172 48.24 114.732 51.12C117.292 54 120.652 55.44 124.812 55.44C128.012 55.44 130.679 54.6933 132.812 53.2C134.565 51.9728 135.868 50.3134 136.721 48.2217C137.057 47.3965 137.825 46.8 138.717 46.8H142.461C143.771 46.8 144.731 48.0435 144.254 49.2639C142.942 52.6193 140.861 55.398 138.012 57.6C134.492 60.2667 130.092 61.6 124.812 61.6C120.652 61.6 116.945 60.6667 113.692 58.8C110.492 56.9333 107.985 54.2933 106.172 50.88C104.359 47.4667 103.452 43.4667 103.452 38.88Z" fill="white"/>
<path d="M158.526 9.92C157.139 9.92 155.966 9.44 155.006 8.48C154.046 7.52 153.566 6.34667 153.566 4.96C153.566 3.57333 154.046 2.4 155.006 1.44C155.966 0.48 157.139 0 158.526 0C159.859 0 160.979 0.48 161.886 1.44C162.846 2.4 163.326 3.57333 163.326 4.96C163.326 6.34667 162.846 7.52 161.886 8.48C160.979 9.44 159.859 9.92 158.526 9.92ZM160.046 17.04C161.15 17.04 162.046 17.9354 162.046 19.04V58.88C162.046 59.9846 161.15 60.88 160.046 60.88H156.766C155.661 60.88 154.766 59.9846 154.766 58.88V19.04C154.766 17.9354 155.661 17.04 156.766 17.04H160.046Z" fill="white"/>
<path d="M171.733 38.8C171.733 34.32 172.64 30.4 174.453 27.04C176.266 23.6267 178.746 20.9867 181.893 19.12C185.093 17.2533 188.666 16.32 192.613 16.32C196.026 16.32 199.2 17.12 202.133 18.72C202.753 19.0466 203.341 19.3958 203.899 19.7676C205.584 20.8911 208.853 19.7273 208.853 17.7021V3.68C208.853 2.57543 209.749 1.68 210.853 1.68H214.213C215.318 1.68 216.213 2.57543 216.213 3.68V58.88C216.213 59.9846 215.318 60.88 214.213 60.88H210.539C209.608 60.88 208.853 60.1251 208.853 59.1939C208.853 57.4509 205.997 56.5123 204.637 57.6019C203.962 58.1426 203.234 58.6486 202.453 59.12C199.626 60.7733 196.32 61.6 192.533 61.6C188.64 61.6 185.093 60.64 181.893 58.72C178.746 56.8 176.266 54.1067 174.453 50.64C172.64 47.1733 171.733 43.2267 171.733 38.8ZM208.853 38.88C208.853 35.5733 208.186 32.6933 206.853 30.24C205.52 27.7867 203.706 25.92 201.413 24.64C199.173 23.3067 196.693 22.64 193.973 22.64C191.253 22.64 188.773 23.28 186.533 24.56C184.293 25.84 182.506 27.7067 181.173 30.16C179.84 32.6133 179.173 35.4933 179.173 38.8C179.173 42.16 179.84 45.0933 181.173 47.6C182.506 50.0533 184.293 51.9467 186.533 53.28C188.773 54.56 191.253 55.2 193.973 55.2C196.693 55.2 199.173 54.56 201.413 53.28C203.706 51.9467 205.52 50.0533 206.853 47.6C208.186 45.0933 208.853 42.1867 208.853 38.88Z" fill="white"/>
<path d="M245.119 61.5999C241.013 61.5999 237.279 60.6666 233.919 58.7999C230.613 56.9333 227.999 54.2933 226.079 50.88C224.213 47.4133 223.279 43.4133 223.279 38.8799C223.279 34.3999 224.239 30.4533 226.159 27.0399C228.133 23.5733 230.799 20.9333 234.159 19.1199C237.519 17.2533 241.279 16.3199 245.439 16.3199C249.599 16.3199 253.359 17.2533 256.719 19.1199C260.079 20.9333 262.719 23.5466 264.639 26.9599C266.613 30.3733 263.84 34.3466 263.84 38.8799C263.84 43.4133 266.586 47.4133 264.559 50.88C262.586 54.2933 259.893 56.9333 256.479 58.7999C253.066 60.6666 249.279 61.5999 245.119 61.5999ZM245.119 55.2C247.733 55.2 250.186 54.5866 252.479 53.3599C254.773 52.1333 256.613 50.2933 257.999 47.8399C259.439 45.3866 260.159 42.3999 260.159 38.8799C260.159 35.3599 259.466 32.3733 258.079 29.9199C256.693 27.4666 254.879 25.6533 252.639 24.4799C250.399 23.2533 247.973 22.6399 245.359 22.6399C242.693 22.6399 240.239 23.2533 237.999 24.4799C235.813 25.6533 234.053 27.4666 232.719 29.9199C231.386 32.3733 230.719 35.3599 230.719 38.8799C230.719 42.4533 231.359 45.4666 232.639 47.9199C233.973 50.3733 235.733 52.2133 237.919 53.4399C240.106 54.6133 242.506 55.2 245.119 55.2Z" fill="#5da370"/>
<path d="M279.56 61.5999C283.667 61.5999 287.4 60.6666 290.76 58.7999C294.067 56.9333 296.68 54.2933 298.6 50.88C300.467 47.4133 301.4 43.4133 301.4 38.8799C301.4 34.3999 300.44 30.4533 298.52 27.0399C296.547 23.5733 293.88 20.9333 290.52 19.1199C287.16 17.2533 283.4 16.3199 279.24 16.3199C275.08 16.3199 271.32 17.2533 267.96 19.1199C264.6 20.9333 261.96 23.5466 260.04 26.9599C258.067 30.3733 257.08 34.3466 257.08 38.8799C257.08 43.4133 258.094 47.4133 260.12 50.88C262.094 54.2933 264.787 56.9333 268.2 58.7999C271.614 60.6666 275.4 61.5999 279.56 61.5999ZM279.56 55.2C276.947 55.2 274.494 54.5866 272.2 53.3599C269.907 52.1333 268.067 50.2933 266.68 47.8399C265.24 45.3866 264.52 42.3999 264.52 38.8799C264.52 35.3599 265.214 32.3733 266.6 29.9199C267.987 27.4666 269.8 25.6533 272.04 24.4799C274.28 23.2533 276.707 22.6399 279.32 22.6399C281.987 22.6399 284.44 23.2533 286.68 24.4799C288.867 25.6533 290.627 27.4666 291.96 29.9199C293.294 32.3733 293.96 35.3599 293.96 38.8799C293.96 42.4533 293.32 45.4666 292.04 47.9199C290.707 50.3733 288.947 52.2133 286.76 53.4399C284.574 54.6133 282.174 55.2 279.56 55.2Z" fill="#d88777"/>
<path d="M249.8 51.8C248.413 51.8 247.24 51.32 246.28 50.36C245.32 49.4 244.84 48.2267 244.84 46.84C244.84 45.4533 245.32 44.28 246.28 43.32C247.24 42.36 248.413 41.88 249.8 41.88C251.133 41.88 252.253 42.36 253.16 43.32C254.12 44.28 254.6 45.4533 254.6 46.84C254.6 48.2267 254.12 49.4 253.16 50.36C252.253 51.32 251.133 51.8 249.8 51.8Z" fill="#5da370"/>
<path d="M284.72 51.8C283.334 51.8 282.16 51.32 281.2 50.36C280.24 49.4 279.76 48.2267 279.76 46.84C279.76 45.4533 280.24 44.28 281.2 43.32C282.16 42.36 283.334 41.88 284.72 41.88C286.054 41.88 287.174 42.36 288.08 43.32C289.04 44.28 289.52 45.4533 289.52 46.84C289.52 48.2267 289.04 49.4 288.08 50.36C287.174 51.32 286.054 51.8 284.72 51.8Z" fill="#d88777"/>
</svg>
